# xmcd
#
# Track frame offsets: 
#        150
#        24940
#        56748
#        82470
#        96974
#        131032
#
# Disc length: 2261 seconds
#
# Revision: 1
# Processed by: cddbd v1.5.2PL0 Copyright (c) Steve Scherf et al.
# Submitted via: ExactAudioCopy v1.0b3
#
DISCID=5008d306
DTITLE=Sabrina and Moon Ray - Boys and Comanchero (Singles)
DYEAR=2008
DGENRE=Pop
TTITLE0=Sabrina - Boys (Original Version)
TTITLE1=Sabrina - Boys (PWL Remix)
TTITLE2=Sabrina - Boys (Remix)
TTITLE3=Moon Ray - Comanchero (Version Single)
TTITLE4=Moon Ray - Comanchero (Special Disco Mix)
TTITLE5=Moon Ray - Comanchero (Disco Remix)
EXTD=
EXTT0=
EXTT1=
EXTT2=
EXTT3=
EXTT4=
EXTT5=
PLAYORDER=
